<svg width="610" height="35" viewBox="0 0 610 35" fill="none" xmlns="http://www.w3.org/2000/svg">
<path d="M-50 17.5C-50 7.83502 -42.165 0 -32.5 0H610C587.59 22.4101 557.195 35 525.503 35H-32.5C-42.165 35 -50 27.165 -50 17.5Z" fill="white"/>
<path d="M-50 17.5C-50 7.83502 -42.165 0 -32.5 0H610C587.59 22.4101 557.195 35 525.503 35H-32.5C-42.165 35 -50 27.165 -50 17.5Z" fill="url(#paint0_linear_94_314)" fill-opacity="0.32"/>
<path d="M-50 17.5C-50 7.83502 -42.165 0 -32.5 0H610C587.59 22.4101 557.195 35 525.503 35H-32.5C-42.165 35 -50 27.165 -50 17.5Z" fill="url(#paint1_linear_94_314)" fill-opacity="0.396"/>
<defs>
<linearGradient id="paint0_linear_94_314" x1="280" y1="35" x2="280" y2="0" gradientUnits="userSpaceOnUse">
<stop/>
<stop offset="0.194651" stop-color="#848484" stop-opacity="0.483084"/>
<stop offset="1" stop-color="white" stop-opacity="0"/>
</linearGradient>
<linearGradient id="paint1_linear_94_314" x1="280" y1="52" x2="280" y2="0" gradientUnits="userSpaceOnUse">
<stop/>
<stop offset="1" stop-color="white" stop-opacity="0"/>
</linearGradient>
</defs>
</svg>
