<svg width="456" height="195" viewBox="0 0 456 195" fill="none" xmlns="http://www.w3.org/2000/svg">
<g filter="url(#filter0_d_94_722)">
<path d="M215.456 240.923L276.428 226.402L261.907 165.43L200.935 179.951L215.456 240.923Z" fill="#F9E050"/>
<path d="M89.7591 111.547L150.731 97.0256L140.111 52.4339L79.1392 66.9551L89.7591 111.547Z" fill="#F4F464"/>
<path d="M145.347 145.749L206.319 131.227L191.798 70.2551L130.826 84.7763L145.347 145.749ZM10.6922 177.818L55.5872 167.126L44.895 122.231L-1.41309e-05 132.923L10.6922 177.818ZM111.13 201.275L156.025 190.583L145.332 145.688L100.437 156.38L111.13 201.275Z" fill="#F4F464"/>
<path d="M183.38 106.24L244.352 91.7191L229.903 31.0501L168.931 45.5713L183.38 106.24Z" fill="#F6842D"/>
<path d="M238.693 140.509L299.665 125.988L285.144 65.0159L224.171 79.5371L238.693 140.509Z" fill="#F4AC2B"/>
<path d="M249.362 185.312L310.335 170.791L295.814 109.819L234.841 124.34L249.362 185.312Z" fill="#F6842D"/>
<path d="M260.077 230.296L321.049 215.775L306.528 154.803L245.556 169.324L260.077 230.296Z" fill="#F4AC2B"/>
<path d="M213.855 34.8731L224.475 79.4648L269.066 68.8448L311.821 248.364L266.926 259.056L277.618 303.951L397.955 275.292C416.034 270.986 431.195 265.196 443.371 257.904C455.561 250.674 464.64 240.882 470.678 228.546C476.715 216.209 479.762 200.738 479.697 182.162C479.647 163.646 476.37 140.866 469.911 113.747C463.394 86.3852 456.195 64.6356 448.297 48.5658C440.296 32.1998 431.029 20.2066 420.502 12.6163C409.965 4.65843 397.162 0.272995 383.959 0.0988517C370.2 -0.470887 354.144 1.42965 335.853 5.786L258.409 24.2301L213.855 34.8731ZM314.016 49.9015L343.046 42.9877C353.056 40.6036 362.006 39.6902 369.775 40.2762C377.823 40.6027 385.417 44.0935 390.905 49.9893C397.238 55.8536 402.908 64.857 407.983 77.0152C413.332 89.1084 418.48 105.609 423.465 126.54C428.435 147.41 431.246 164.595 432.011 178.036C432.991 191.17 432.016 201.884 429.095 210.209C426.395 217.897 421.178 224.448 414.289 228.801C407.565 232.87 399.346 236.046 389.548 238.379L360.549 245.286L314.016 49.9015Z" fill="#F14D34"/>
<path d="M190.243 135.056L235.138 124.364L224.445 79.4689L179.55 90.1611L190.243 135.056Z" fill="#F9E050"/>
<path d="M134.655 100.855L179.55 90.1631L168.93 45.5715L124.035 56.2637L134.655 100.855Z" fill="#F9E050"/>
</g>
<defs>
<filter id="filter0_d_94_722" x="-8.99064" y="0" width="497.68" height="378.863" filterUnits="userSpaceOnUse" color-interpolation-filters="sRGB">
<feFlood flood-opacity="0" result="BackgroundImageFix"/>
<feColorMatrix in="SourceAlpha" type="matrix" values="0 0 0 0 0 0 0 0 0 0 0 0 0 0 0 0 0 0 127 0" result="hardAlpha"/>
<feOffset dy="23.2258"/>
<feGaussianBlur stdDeviation="4.49532"/>
<feColorMatrix type="matrix" values="0 0 0 0 0 0 0 0 0 0.0495833 0 0 0 0 0.145833 0 0 0 0.25 0"/>
<feBlend mode="normal" in2="BackgroundImageFix" result="effect1_dropShadow_94_722"/>
<feBlend mode="normal" in="SourceGraphic" in2="effect1_dropShadow_94_722" result="shape"/>
</filter>
</defs>
</svg>
